<svg xmlns="http://www.w3.org/2000/svg" width="42.501" height="42.197" viewBox="0 0 42.501 42.197">
  <g id="Group_252" data-name="Group 252" transform="translate(-1701.672 -909.862)">
    <rect id="Rectangle_410" data-name="Rectangle 410" width="42.197" height="42.197" transform="translate(1701.672 909.862)" fill="#016fd0"/>
    <path id="Path_189" data-name="Path 189" d="M65.206,102.172l16.72.035,2.626-2.929L87.2,102.2h4.977V97.923l-3.117-3.361,3.117-3.331V87.045l-26.967-.024Z" transform="translate(1652 843.535)" fill="#fff"/>
    <path id="Path_190" data-name="Path 190" d="M72.874,105.943V94.12H82.9v2.723H76.119v1.849h6.617v2.679H76.119v1.816H82.9v2.756Z" transform="translate(1646.134 838.104)" fill="#016fd0" fill-rule="evenodd"/>
    <path id="Path_191" data-name="Path 191" d="M126.417,94.12l-3.4,3.747-3.39-3.747h-4.293l5.547,5.9-5.547,5.918h4.177l3.415-3.785,3.45,3.785h4.15v-.168l-5.429-5.751,5.429-5.811V94.12Z" transform="translate(1613.648 838.103)" fill="#016fd0"/>
    <path id="Path_192" data-name="Path 192" d="M68.4,29.775l-1.389,3.884-1.384-3.884H57.6v5.184l-2.283-5.184h-6.5L42.139,44.926H74.525V29.775Z" transform="translate(1669.648 887.333)" fill="#fff"/>
    <path id="Path_193" data-name="Path 193" d="M58.714,36.781,53.468,48.594h3.6l.99-2.365h5.363l.989,2.365h3.687L62.871,36.781Zm.451,6.8,1.573-3.761,1.572,3.761Z" transform="translate(1660.981 881.973)" fill="#016fd0" fill-rule="evenodd"/>
    <path id="Path_194" data-name="Path 194" d="M125.8,36.773l-2.619,7.28-2.6-7.262-5.058-.018V48.586H118.7V40.472l3.018,8.114h2.859l2.957-8.087v8.114l3.132-.027V36.773Z" transform="translate(1613.503 881.978)" fill="#016fd0"/>
  </g>
</svg>
