<svg xmlns="http://www.w3.org/2000/svg" width="42.141" height="42.145" viewBox="0 0 42.141 42.145">
  <g id="Group_259" data-name="Group 259" transform="translate(-1266 -909.095)">
    <path id="Path_178" data-name="Path 178" d="M41.51,26.171A21.065,21.065,0,1,1,26.165.631,21.067,21.067,0,0,1,41.51,26.171h0Z" transform="translate(1266 909.094)" fill="#f7931a"/>
    <path id="Path_179" data-name="Path 179" d="M1015.579,723.479c.419-2.8-1.716-4.312-4.635-5.317l.947-3.8-2.312-.576-.922,3.7c-.608-.152-1.232-.294-1.853-.436l.929-3.723-2.311-.576-.948,3.8c-.5-.114-1-.228-1.476-.347l0-.012-3.189-.8-.615,2.47s1.715.393,1.679.417a1.231,1.231,0,0,1,1.078,1.345l-1.079,4.328a1.9,1.9,0,0,1,.24.077l-.244-.06-1.512,6.062a.841.841,0,0,1-1.06.549c.023.033-1.681-.419-1.681-.419l-1.148,2.647,3.009.75c.56.14,1.108.287,1.649.425l-.957,3.842,2.31.576.948-3.8c.631.171,1.243.329,1.843.478l-.944,3.783,2.313.576.957-3.835c3.943.746,6.908.445,8.156-3.121,1.006-2.871-.05-4.528-2.124-5.608a3.687,3.687,0,0,0,2.952-3.4h0Zm-5.283,7.408c-.715,2.871-5.549,1.319-7.117.93l1.27-5.09C1006.016,727.118,1011.042,727.893,1010.3,730.887Zm.715-7.45c-.652,2.612-4.676,1.285-5.981.96l1.151-4.617c1.305.326,5.509.933,4.83,3.657Z" transform="translate(280.784 203.686)" fill="#fff"/>
  </g>
</svg>
