<svg xmlns="http://www.w3.org/2000/svg" width="42.175" height="42.175" viewBox="0 0 42.175 42.175">
  <g id="Group_258" data-name="Group 258" transform="translate(-1324.648 -909.095)">
    <ellipse id="Ellipse_30" data-name="Ellipse 30" cx="21.088" cy="21.088" rx="21.088" ry="21.088" transform="translate(1324.648 909.095)" fill="#0ac18e"/>
    <path id="symbol_1_" d="M209.82,153.218c-1.057-2.4-3.486-2.91-6.46-2.413L202.4,147.1l-2.253.582.94,3.695c-.593.149-1.2.278-1.8.448l-.94-3.673-2.253.582.956,3.705c-.486.139-4.549,1.18-4.549,1.18l.619,2.413s1.655-.464,1.639-.427a1.2,1.2,0,0,1,1.554.651l2.627,10.155a.833.833,0,0,1-.651.966c.037.021-1.639.422-1.639.422l.246,2.814s4.026-1.03,4.554-1.164l.966,3.748,2.253-.582-.966-3.775q.929-.216,1.81-.448l.961,3.753,2.253-.582-.966-3.743c3.47-.844,5.921-3.033,5.419-6.38a5.2,5.2,0,0,0-4.357-3.86,3.721,3.721,0,0,0,1-4.362Zm-1.084,8.836c.448,3.316-4.159,3.721-5.681,4.122l-1.324-4.96C203.258,160.816,207.978,159.134,208.736,162.055ZM205.96,155.3c.475,2.947-3.465,3.289-4.736,3.615l-1.207-4.5C201.293,154.1,204.993,152.573,205.96,155.3Z" transform="translate(1142.426 769.848)" fill="#fff"/>
  </g>
</svg>
