<svg id="Layer_x0020_1" xmlns="http://www.w3.org/2000/svg" width="31.563" height="31.566" viewBox="0 0 31.563 31.566">
  <g id="_1421344023328" transform="translate(0 0)">
    <path id="Path_178" data-name="Path 178" d="M31.09,19.6A15.778,15.778,0,1,1,19.6.473,15.779,15.779,0,0,1,31.09,19.6h0Z" transform="translate(0 -0.001)" fill="#f7931a"/>
    <path id="Path_179" data-name="Path 179" d="M1010.531,720.786c.314-2.1-1.285-3.229-3.472-3.983l.709-2.845-1.732-.432-.691,2.77c-.455-.114-.923-.221-1.388-.327l.7-2.789-1.731-.432-.71,2.844c-.377-.086-.747-.171-1.106-.26l0-.009-2.388-.6-.461,1.85s1.285.294,1.258.313a.922.922,0,0,1,.807,1.007l-.808,3.241a1.421,1.421,0,0,1,.18.058l-.183-.045-1.133,4.541a.63.63,0,0,1-.794.411c.017.025-1.259-.314-1.259-.314l-.86,1.982,2.254.562c.419.105.83.215,1.235.319l-.717,2.878,1.73.432.71-2.847c.473.128.931.247,1.38.358l-.707,2.834,1.732.432.717-2.872c2.953.559,5.174.334,6.109-2.338.753-2.151-.037-3.391-1.591-4.2a2.762,2.762,0,0,0,2.211-2.543h0Zm-3.957,5.549c-.535,2.151-4.156.988-5.33.7l.951-3.813C1003.369,723.512,1007.133,724.092,1006.574,726.335Zm.536-5.58c-.488,1.956-3.5.962-4.48.719l.862-3.458c.978.244,4.126.7,3.618,2.739Z" transform="translate(-987.79 -707.252)" fill="#fff"/>
  </g>
</svg>
