<svg xmlns="http://www.w3.org/2000/svg" width="26.008" height="25.946" viewBox="0 0 26.008 25.946">
  <path id="Path_205" data-name="Path 205" d="M574.329,78.9h11.98a7.047,7.047,0,0,1,7.014,7.014V97.828a7.047,7.047,0,0,1-7.014,7.014h-11.98a7.047,7.047,0,0,1-7.014-7.014V85.91a7.047,7.047,0,0,1,7.014-7.014M587.3,83.427h0a1.49,1.49,0,1,1,0,2.979,1.49,1.49,0,1,1,0-2.979m-7.014,1.366h.062a7.076,7.076,0,1,1,0,14.152h-.062a7.077,7.077,0,0,1,0-14.152m0,2.421h.062a4.687,4.687,0,0,1,0,9.373h-.062a4.687,4.687,0,0,1,0-9.373m-5.9-6.083h11.856a4.848,4.848,0,0,1,4.842,4.842V97.766a4.848,4.848,0,0,1-4.842,4.842H574.391a4.848,4.848,0,0,1-4.842-4.842V85.972a4.848,4.848,0,0,1,4.842-4.842" transform="translate(-567.315 -78.896)" fill="#fff" fill-rule="evenodd"/>
</svg>
