<svg xmlns="http://www.w3.org/2000/svg" width="42.197" height="42.197" viewBox="0 0 42.197 42.197">
  <g id="Group_255" data-name="Group 255" transform="translate(-1486.23 -908.327)">
    <ellipse id="Ellipse_31" data-name="Ellipse 31" cx="19.211" cy="19.211" rx="19.211" ry="19.211" transform="translate(1488.118 910.215)" fill="#fff"/>
    <path id="Path_186" data-name="Path 186" d="M21.1,0A21.1,21.1,0,1,0,42.2,21.1h0A21.037,21.037,0,0,0,21.221,0Zm.358,21.814-2.2,7.407h11.75a.593.593,0,0,1,.613.572v.194L30.6,33.513a.761.761,0,0,1-.766.562H11.852l3.014-10.268-3.372,1.022.766-2.35,3.372-1.022L19.873,7.05a.771.771,0,0,1,.766-.562h4.547a.593.593,0,0,1,.613.572v.194L22.222,19.413l3.372-1.022-.715,2.452Z" transform="translate(1486.23 908.327)" fill="#345d9d"/>
  </g>
</svg>
