<svg id="Group_68" data-name="Group 68" xmlns="http://www.w3.org/2000/svg" width="206.283" height="79.182" viewBox="0 0 206.283 79.182">
  <path id="Path_52" data-name="Path 52" d="M29.957,46.066l2.3-4.061a1.265,1.265,0,0,1,1.666-.295c.2.1,3.718,2.694,6.95,2.694,1.957,0,3.375-1.224,3.375-2.937,0-2.057-1.714-3.622-5.041-4.945C35,34.861,29.713,31.581,29.713,25.708c0-4.846,3.766-9.74,11.3-9.74a18.224,18.224,0,0,1,10.477,3.67,1.238,1.238,0,0,1,.291,1.566l-2.5,3.77c-.343.539-1.224.981-1.666.638-.438-.247-4.013-2.937-7-2.937a2.837,2.837,0,0,0-3.081,2.494c0,1.814,1.467,3.18,5.332,4.746,3.817,1.518,9.887,4.5,9.887,11.162,0,5.041-4.355,10.13-11.549,10.13-6.363,0-9.887-2.643-11.015-3.77-.484-.491-.633-.686-.241-1.372" transform="translate(-29.713 -1.265)" fill="#fff"/>
  <path id="Path_53" data-name="Path 53" d="M61.512,17.428a.93.93,0,0,1,.933-.929h5.822a.963.963,0,0,1,.929.929V43.566H79.718a.93.93,0,0,1,.933.928V49.83a.933.933,0,0,1-.933.929H62.445a.93.93,0,0,1-.933-.929Z" transform="translate(-32.233 -1.308)" fill="#fff"/>
  <path id="Path_54" data-name="Path 54" d="M103.6,58.748a9.79,9.79,0,1,0-9.74-9.74,9.808,9.808,0,0,0,9.74,9.74m0-27.409a17.62,17.62,0,1,1-17.57,17.67,17.589,17.589,0,0,1,17.57-17.67" transform="translate(-34.176 -2.484)" fill="#fff"/>
  <path id="Path_55" data-name="Path 55" d="M134.86,23.693h-7a.927.927,0,0,1-.929-.929V17.428a.929.929,0,0,1,.929-.928H149.59a.933.933,0,0,1,.933.928v5.336a.931.931,0,0,1-.933.929h-7V49.831a.965.965,0,0,1-.929.928h-5.873a.962.962,0,0,1-.929-.928V23.693Z" transform="translate(-37.418 -1.308)" fill="#fff"/>
  <path id="Path_56" data-name="Path 56" d="M156,46.066l2.3-4.061a1.265,1.265,0,0,1,1.666-.295c.2.1,3.718,2.694,6.95,2.694,1.957,0,3.375-1.224,3.375-2.937,0-2.057-1.714-3.622-5.041-4.945-4.208-1.662-9.493-4.942-9.493-10.815,0-4.846,3.766-9.74,11.3-9.74a18.224,18.224,0,0,1,10.477,3.67,1.235,1.235,0,0,1,.291,1.566l-2.5,3.77c-.343.539-1.223.981-1.666.638-.438-.247-4.013-2.937-7-2.937a2.837,2.837,0,0,0-3.081,2.494c0,1.814,1.467,3.18,5.332,4.746,3.817,1.518,9.887,4.5,9.887,11.162,0,5.041-4.355,10.13-11.549,10.13-6.363,0-9.887-2.643-11.015-3.77-.484-.491-.632-.686-.241-1.372" transform="translate(-39.702 -1.265)" fill="#fff"/>
  <path id="Path_57" data-name="Path 57" d="M189.019,44.139a4.764,4.764,0,0,1,4.7,4.7,4.711,4.711,0,0,1-4.7,4.6,4.658,4.658,0,0,1-4.6-4.6,4.713,4.713,0,0,1,4.6-4.7" transform="translate(-41.974 -3.498)" fill="#fff"/>
  <path id="Path_58" data-name="Path 58" d="M200.053,17.428a.93.93,0,0,1,.933-.929h5.822a.962.962,0,0,1,.929.929V43.566h11.648a.93.93,0,0,1,.933.928V49.83a.933.933,0,0,1-.933.929h-18.4a.93.93,0,0,1-.933-.929v-32.4Z" transform="translate(-43.213 -1.308)" fill="#fff"/>
  <path id="Path_59" data-name="Path 59" d="M218.023,17.771a.863.863,0,0,1,.833-1.272h6.507a.967.967,0,0,1,.833.538L234.271,34.9h.295l8.074-17.865a.968.968,0,0,1,.833-.538h6.512a.862.862,0,0,1,.829,1.272L235.447,50.711a.941.941,0,0,1-.833.538h-.49a.931.931,0,0,1-.83-.538Z" transform="translate(-44.629 -1.308)" fill="#fff"/>
  <path id="Path_60" data-name="Path 60" d="M111.391,0a9.759,9.759,0,0,1,2,5.868,9.764,9.764,0,0,1-19.527,0A9.778,9.778,0,0,1,95.853,0H87.086a17.763,17.763,0,0,0-1.057,5.868,17.594,17.594,0,0,0,35.188,0A17.668,17.668,0,0,0,120.155,0h-8.764Z" transform="translate(-34.176)" fill="#fff"/>
  <path id="Path_61" data-name="Path 61" d="M103.77,83.325a9.637,9.637,0,0,1,5.638,1.84h10.006a17.458,17.458,0,0,0-31.25,0H98.169a9.557,9.557,0,0,1,5.6-1.84" transform="translate(-34.345 -5.983)" fill="#fff"/>
</svg>
