<svg xmlns="http://www.w3.org/2000/svg" width="491.477" height="492.06" viewBox="0 0 491.477 492.06">
  <path id="Union_56" data-name="Union 56" d="M401.985,463.044c-37.442-19.241-83.963-38.482-134.456-23.878-21.286,6.156-27.914,14.7-53.428,20.616-25.921,6.013-47.956.659-70.741-4.694-21.235-4.991-43.122-9.98-69.412-5.767-47.351,7.586-71.5,28.654-73.832,22.9a3.672,3.672,0,0,1,.524-2.8H0V0H481.806V389.462c7.3,27.522,15.466,70.4,3.867,92.253-3.9,7.351-9.526,10.346-16.669,10.345C453.286,492.058,430.215,477.551,401.985,463.044Z" transform="translate(0)" fill="#ff5c5c"/>
</svg>
