<svg id="tether-usdt-logo" xmlns="http://www.w3.org/2000/svg" width="51.793" height="45.056" viewBox="0 0 51.793 45.056">
  <path id="Path_187" data-name="Path 187" d="M9.488.221.044,20.058a.385.385,0,0,0,.082.449L25.632,44.947a.389.389,0,0,0,.539,0L51.677,20.508a.385.385,0,0,0,.082-.449L42.315.223A.381.381,0,0,0,41.967,0H9.839a.381.381,0,0,0-.351.221Z" transform="translate(-0.005 0)" fill="#50af95" fill-rule="evenodd"/>
  <path id="Path_188" data-name="Path 188" d="M77.879,63.806h0a17.326,17.326,0,0,1-2.3.1c-1.192,0-2.038-.074-2.335-.1h0c-4.606-.422-8.044-2.09-8.044-4.088s3.438-3.664,8.044-4.092v6.518A16.784,16.784,0,0,0,75.6,62.3a12.958,12.958,0,0,0,2.275-.149V55.631c4.6.426,8.026,2.095,8.026,4.088S82.472,63.38,77.875,63.8h0Zm0-8.849V49.124h6.414V40.23H66.83v8.894h6.413v5.83c-5.213.5-9.133,2.647-9.133,5.222S68.03,64.9,73.243,65.4V84.089h4.635v-18.7c5.2-.5,9.114-2.645,9.114-5.217s-3.91-4.719-9.114-5.219h0Zm0,0Z" transform="translate(-49.657 -39.033)" fill="#fff" fill-rule="evenodd"/>
</svg>
