<svg xmlns="http://www.w3.org/2000/svg" width="42.175" height="42.175" viewBox="0 0 42.175 42.175">
  <g id="Group_257" data-name="Group 257" transform="translate(-1383.296 -909.095)">
    <ellipse id="Ellipse_30" data-name="Ellipse 30" cx="21.088" cy="21.088" rx="21.088" ry="21.088" transform="translate(1383.296 909.095)" fill="#00a678"/>
    <path id="Path_199" data-name="Path 199" d="M79.564,52.9h0c-.146.011-.9.056-2.582.056-1.338,0-2.287-.04-2.621-.056h0c-5.17-.227-9.028-1.123-9.028-2.2s3.859-1.969,9.028-2.2v3.5c.338.024,1.306.081,2.644.081,1.605,0,2.409-.067,2.554-.08v-3.5c5.159.229,9.009,1.126,9.009,2.2s-3.849,1.968-9.009,2.2h0Zm0-4.757V45.011h7.2V40.23h-19.6v4.781h7.2v3.134c-5.851.268-10.25,1.423-10.25,2.807s4.4,2.538,10.25,2.807V63.806h5.2V53.755c5.837-.268,10.23-1.422,10.23-2.8s-4.389-2.537-10.23-2.806h0Zm0,0Z" transform="translate(1327.751 879.244)" fill="#fff" fill-rule="evenodd"/>
  </g>
</svg>
