<svg xmlns="http://www.w3.org/2000/svg" width="26.406" height="21.447" viewBox="0 0 26.406 21.447">
  <path id="Path_207" data-name="Path 207" d="M1072.281,107.158a5.554,5.554,0,0,1,9.526-4.833,14.023,14.023,0,0,0,3.292-1.471,6.059,6.059,0,0,1-2.451,3.082,10.442,10.442,0,0,0,3.012-.841,5.855,5.855,0,0,1-2.592,2.591c.91,12.678-12.748,20.382-23.814,14.079,0,0,5.463.28,7.775-2.381,0,0-3.362.28-5.043-3.782a3.379,3.379,0,0,0,2.521-.14,5.466,5.466,0,0,1-4.272-5.323,3.451,3.451,0,0,0,2.662.63,5.373,5.373,0,0,1-1.891-7.284s4.623,5.884,11.277,5.673" transform="translate(-1059.253 -100.562)" fill="#fff" fill-rule="evenodd"/>
</svg>
