<svg xmlns="http://www.w3.org/2000/svg" width="58.762" height="18.977" viewBox="0 0 58.762 18.977">
  <g id="Group_254" data-name="Group 254" transform="translate(-1544.878 -921.37)">
    <path id="Path_195" data-name="Path 195" d="M22.31.335,14.617,18.689H9.6L5.812,4.041A2.012,2.012,0,0,0,4.684,2.429,19.866,19.866,0,0,0,0,.868L.112.335H8.192a2.214,2.214,0,0,1,2.19,1.871l2,10.621L17.321.335Zm6.785,0L25.17,18.689H20.421L24.347.335ZM41.976,12.7c.02-4.843-6.7-5.112-6.652-7.276.016-.658.643-1.358,2.014-1.537a8.965,8.965,0,0,1,4.683.822L42.853.811A12.8,12.8,0,0,0,38.411,0c-4.694,0-8,2.493-8.022,6.066-.031,2.643,2.359,4.116,4.155,5,1.851.9,2.471,1.477,2.463,2.28-.013,1.231-1.478,1.776-2.84,1.8a9.921,9.921,0,0,1-4.877-1.16L28.429,18a14.412,14.412,0,0,0,5.279.974c4.99,0,8.254-2.465,8.268-6.28m12.4,5.992h4.39L54.926.335h-4.05A2.16,2.16,0,0,0,48.854,1.68L41.728,18.689h4.986l.989-2.742H53.8Zm-5.3-6.5,2.5-6.892,1.436,6.892Z" transform="translate(1544.878 921.37)" fill="#1a1f71"/>
    <rect id="Rectangle_411" data-name="Rectangle 411" width="58.762" height="18.977" transform="translate(1544.878 921.37)" fill="none"/>
  </g>
</svg>
