<svg xmlns="http://www.w3.org/2000/svg" width="25.647" height="18.162" viewBox="0 0 25.647 18.162">
  <path id="Path_201" data-name="Path 201" d="M1554.237,110.841c2.495-.2,5.439-.3,7.684-.3s5.139.1,7.684.3c2.944.249,4.441.748,4.84,3.692a37.237,37.237,0,0,1,.3,5.089,36.731,36.731,0,0,1-.3,5.089c-.4,2.994-1.9,3.443-4.84,3.692-2.545.249-5.439.3-7.684.3s-5.189-.05-7.684-.3c-2.944-.25-4.49-.7-4.89-3.692a48.074,48.074,0,0,1-.25-5.089,48.8,48.8,0,0,1,.25-5.089c.4-2.944,1.946-3.443,4.89-3.692" transform="translate(-1549.098 -110.542)" fill="#fff" fill-rule="evenodd"/>
</svg>
